<?xml version="1.0" encoding="UTF-8"?>
<svg enable-background="new 0 0 230 76" version="1.1" viewBox="0 0 230 76" xml:space="preserve" xmlns="http://www.w3.org/2000/svg">
			<ellipse cx="191.98" cy="38" rx="38.018" ry="38" fill="#F9D129"/>
				<linearGradient id="b" x1="662.77" x2="731.84" y1="818.83" y2="787.01" gradientTransform="translate(-505.32 -764.92)" gradientUnits="userSpaceOnUse">
				<stop stop-color="#BD890F" offset=".0056"/>
				<stop stop-color="#fff" stop-opacity="0" offset=".2528"/>
				<stop stop-color="#FAF6EE" stop-opacity=".1058" offset=".2891"/>
				<stop stop-color="#EEE0C1" stop-opacity=".3164" offset=".3612"/>
				<stop stop-color="#DABD78" stop-opacity=".6118" offset=".4625"/>
				<stop stop-color="#BE8C16" stop-opacity=".9779" offset=".5879"/>
				<stop stop-color="#BD890F" offset=".5955"/>
				<stop stop-color="#D6B66C" stop-opacity=".7264" offset=".7564"/>
				<stop stop-color="#fff" stop-opacity=".312" offset="1"/>
			</linearGradient>
			<ellipse cx="191.98" cy="38" rx="38.018" ry="38" fill="url(#b)"/>
		<ellipse cx="191.99" cy="38" rx="35.818" ry="35.802" fill="#fff"/>
		<ellipse cx="191.99" cy="38" rx="35.34" ry="35.323" fill="#8BC441"/>
			<radialGradient id="a" cx="698" cy="800.77" r="35.575" fx="682.88" fy="789.51" gradientTransform="matrix(1.0026 0 0 1.002 -508.25 -764.9)" gradientUnits="userSpaceOnUse">
			<stop stop-color="#FFEFDF" stop-opacity="0" offset=".0374"/>
			<stop stop-color="#F9EDDB" stop-opacity=".0909" offset=".1175"/>
			<stop stop-color="#E7E6D0" stop-opacity=".217" offset=".2285"/>
			<stop stop-color="#C9DBBF" stop-opacity=".3637" offset=".3578"/>
			<stop stop-color="#A0CCA6" stop-opacity=".5261" offset=".5008"/>
			<stop stop-color="#6BB987" stop-opacity=".7013" offset=".6551"/>
			<stop stop-color="#2CA261" stop-opacity=".8843" offset=".8163"/>
			<stop stop-color="#009247" offset=".9182"/>
		</radialGradient>
		<ellipse cx="191.98" cy="38" rx="35.342" ry="35.323" fill="url(#a)" style="mix-blend-mode:multiply" xmlns="http://www.w3.org/2000/svg"/>
			<g fill="#fff">
					<path d="m168.77 53.838s17.747 1.172 33.209 10.711c0 0-1.581 2.678-3.514 3.347-1e-3 0-12.915-11.38-29.695-14.058z"/>
					<path d="m214.62 53.838s-17.747 1.172-33.209 10.711c0 0 1.581 2.678 3.514 3.347 1e-3 0 12.915-11.38 29.695-14.058z"/>
				<path d="m171.7 24.33c4.973-4.992 8.167-5.88 12.143-6.502-4.073 2.584-7.877 8.593-6.692 12.822 2.151-4.487 5.906-8.872 9.368-10.47-1.958 2.744-2.021 6.162-0.136 9.081 0.437-3.787 3.091-7.426 5.309-9.863 2.218 2.438 4.872 6.076 5.309 9.863 1.885-2.919 1.822-6.337-0.136-9.081 3.462 1.598 7.216 5.983 9.368 10.47 1.186-4.229-2.619-10.238-6.691-12.822 3.977 0.623 7.17 1.51 12.143 6.502-1.641-6.678-7.419-8.992-12.038-9.818 5.083-0.435 6.092 0.081 10.581 1.938-4.875-4.789-8.292-5.652-13.174-5.186 0.837-0.73 1.637-1.125 2.867-1.449-2.048-0.806-5.252-0.382-6.499 0.81 0 0-0.245-2.194-1.715-3.078v-0.02c-6e-3 3e-3 -0.01 7e-3 -0.016 0.011-6e-3 -3e-3 -0.01-7e-3 -0.016-0.011v0.021c-1.47 0.884-1.715 3.078-1.715 3.078-1.247-1.192-4.45-1.616-6.499-0.81 1.231 0.324 2.03 0.718 2.867 1.449-4.882-0.467-8.299 0.397-13.174 5.186 4.489-1.857 5.498-2.374 10.581-1.938-4.616 0.825-10.394 3.139-12.035 9.817z"/>
			</g>
			<path d="m193.58 27.558c-0.262-0.669-1.805-4.153-1.804-4.159 1e-3 6e-3 -3.463 6.301-3.346 9.651 0.05 1.434 0.481 2.758 1.152 3.658 0.495 0.67 0.946 0.798 1.63 0.968 0.158 0.081 0.48 0.059 0.523-0.082 1.062-3.503 0.121-7.086 0.121-7.086s1.444 2.09 1.153 7.066c-0.011 0.213 0.111 0.225 0.136 0.221 2.306-0.34 2.297-3.623 2.227-5.059-0.072-1.45-1.112-3.849-1.792-5.178z" fill="#fff"/>
					<path d="m181.97 47.234c1.175 0.458 7.015 0.302 7.8 6.614-0.686-0.544-2.109-0.719-3.068-0.904-6.718-1.297-7.139-6.745-7.34-7.813 0.177 0.304 0.651 0.946 4.763 1.114 2.827 0.115 8.674 0.666 8.921 10.326l-1.012 0.447-1.018-0.447c0.383-10.703-7.937-9.128-9.046-9.337z" fill="#fff"/>
						<path d="m199.82 46.244c-2.152 0.088-5.725 0.325-7.578 3.479 0.323 0.582 0.579 1.23 0.767 1.944 2.306-4.924 7.998-4.251 8.966-4.434-0.961 0.375-5.086 0.556-7.408 4.014-0.498 0.741-1.19 2.772-1.188 2.803 0.729-0.529 2.922-0.924 3.864-1.106 6.718-1.297 7.139-6.745 7.34-7.813-0.177 0.303-0.651 0.945-4.763 1.113z" fill="#fff"/>
			<path d="m192.3 44.35c-0.277-2.17 0.501-4.273 1.728-5.707s2.84-2.132 4.447-2.381c0.536-0.083 1.079-0.121 1.599-0.312s1.029-0.554 1.339-1.155c-0.155 2.426-2.212 11.573-8.528 11.499-0.147-2.061 2.892-4.826 4.434-5.686-3.354 0.732-4.58 3.047-5.019 3.742" fill="#fff"/>
			<path d="m191.58 44.35c0.277-2.17-0.501-4.273-1.728-5.707s-2.84-2.132-4.447-2.381c-0.536-0.083-1.079-0.121-1.599-0.312-0.521-0.19-1.029-0.554-1.339-1.155 0.155 2.426 2.212 11.573 8.528 11.499 0.147-2.061-2.892-4.981-4.434-5.841 3.353 0.732 4.58 3.202 5.019 3.897" fill="#fff"/>
	<g fill="#fff">
		<path d="m29.249 54.904c0.333 0 0.595-0.261 0.595-0.595s-0.262-0.595-0.595-0.595c-0.345 0-0.595 0.25-0.595 0.595s0.251 0.595 0.595 0.595z"/>
		<path d="m30.877 54.904c0.339 0 0.595-0.256 0.595-0.595 0-0.34-0.256-0.595-0.595-0.595s-0.595 0.256-0.595 0.595c0 0.34 0.255 0.595 0.595 0.595z"/>
		<path d="m35.646 61.916c-0.339 0-0.595 0.251-0.595 0.583 0 0.34 0.256 0.595 0.595 0.595s0.596-0.256 0.596-0.595c0-0.332-0.257-0.583-0.596-0.583z"/>
		<path d="m34.019 61.916c-0.345 0-0.596 0.245-0.596 0.583 0 0.345 0.251 0.595 0.596 0.595 0.334 0 0.596-0.262 0.596-0.595 0-0.327-0.262-0.583-0.596-0.583z"/>
		<path d="m34.914 56.134l0.071 0.023c0.495 0.158 0.495 0.235 0.495 0.491v2.745c0 0.697-0.279 1.055-0.829 1.066h-1.966c-0.471-0.04-0.569-0.503-0.569-0.885v-2.926c0-0.224 9e-3 -0.52 0.078-0.82l5e-3 -0.023h-0.597l-5e-3 6e-3c-0.058 0.058-0.065 0.101-0.071 0.135-3e-3 0.015-5e-3 0.027-0.012 0.042-0.066 0.194-0.096 0.25-0.107 0.265-0.024-0.016-0.087-0.057-0.181-0.117l-5e-3 -3e-3c-0.26-0.169-0.693-0.452-1.339-0.452-1.462 0-2.336 1.319-2.336 2.595 0 1.456 0.941 2.64 2.098 2.64 0.866 0 1.404-0.571 1.622-1.097 0.041 0.991 0.721 1.086 1.417 1.097h2.159c1.023 0 1.658-0.57 1.658-1.487v-3.593l-1.514 0.287-0.072 0.011zm-3.92 3.355c-0.18 0.6-0.664 1.004-1.202 1.004-0.438 0-1.179-0.453-1.179-2.15 0-1.645 0.684-2.229 1.27-2.229 0.503 0 0.841 0.211 1.034 0.646 0.178 0.403 0.201 0.943 0.201 1.369-1e-3 0.586-0.022 1.019-0.124 1.36z"/>
		<path d="m40.179 55.849h-0.023c-0.372 0-0.713 0.183-1.043 0.56-0.498 0.568-0.695 0.616-0.959 0.626l-0.023 1e-3 0.219 0.945 0.024-0.035c0.612-0.882 1.235-1.698 1.646-1.698 0.589 0 0.704 1.041 0.704 2.839v1.371h-3.31l0.376 0.449 6e-3 7e-3h4.075v-0.313c-1e-3 -1.42-0.165-4.726-1.692-4.752z"/>
		<path d="m65.881 53.954l0.071 0.023c0.484 0.154 0.484 0.223 0.484 0.479v4.936c0 0.707-0.294 1.066-0.873 1.066h-0.268v0.011h-0.128c-0.625 0-1.089-0.663-1.224-1.314v-3.31l-1.564 0.3 0.07 0.023c0.472 0.154 0.472 0.223 0.472 0.479v2.79c0 0.707-0.294 1.065-0.873 1.065-0.745 0-1.202-1.028-1.202-1.766v-2.485l-1.596 0.3 0.068 0.023c0.495 0.169 0.495 0.21 0.495 0.434v2.429c0 0.707-0.297 1.065-0.884 1.065-0.652 0-1.094-0.794-1.179-1.54v-2.304l-1.515 0.275-0.072 0.013 0.07 0.024c0.495 0.165 0.495 0.202 0.495 0.445v1.976c0 0.707-0.29 1.066-0.862 1.066h-2.973c-0.345 0-0.499-0.062-0.633-0.17 0.471-0.255 1.003-0.566 1.404-0.943 0.467-0.438 0.694-0.895 0.694-1.399 0-1.226-0.948-2.018-2.415-2.018-0.742 0-1.632 0.294-2.575 0.85-0.053 0.031-0.087 0.056-0.113 0.077-0.013 0.01-0.023 0.018-0.034 0.025l-0.019 0.013 0.016 0.016c0.027 0.027 0.112 0.144 0.186 0.247l0.09 0.122c0.191 0.25 0.548 0.715 0.725 1.049 0.597 1.204 0.81 1.542 1.129 1.907-0.292 0.165-0.945 0.223-1.067 0.223h-3.086c0.052-0.458 0.077-1.043 0.077-1.789v-2.786h-0.878c-0.958 0-1.782 0.306-2.384 0.884-0.611 0.588-0.935 1.406-0.935 2.366 0 1.147 1.034 1.781 1.748 1.781h1.275c-0.407 1.358-1.366 1.742-2.251 1.939l-0.42 0.07 0.151 0.013c0.427 0.035 0.773 0.056 0.928 0.056 0.591 0 1.068-0.119 1.458-0.364 0.531-0.333 0.909-0.91 1.122-1.714h3.467c0.605 0 0.894-0.124 1.202-0.288 4e-3 2e-3 7e-3 4e-3 0.011 5e-3 0.161 0.107 0.433 0.283 1.284 0.283h3.04c0.725 0 1.266-0.266 1.529-0.752 0.408 0.541 0.864 0.763 1.568 0.763 0.702 0 1.39-0.411 1.564-0.926 0.268 0.564 0.864 0.926 1.533 0.926 0.775 0 1.359-0.351 1.573-0.941 0.275 0.548 0.894 0.941 1.49 0.941h0.155v-0.011h0.298c1.03 0 1.67-0.57 1.67-1.487v-5.773l-1.515 0.287-0.074 0.015zm-19.641 6.173c0 0.133-9e-3 0.219-0.019 0.319l-1e-3 0.012h-1.148c-0.61 0-0.975-0.708-0.975-1.393 0-1.671 1.053-2.794 2.037-2.794h0.106v3.856zm4.793-1.702c-0.266-0.587-0.55-1.054-0.892-1.466 0.614-0.339 1.24-0.518 1.813-0.518 0.781 0 1.247 0.546 1.247 1.461 0 1.072-0.543 1.497-1.311 1.975-0.299-0.341-0.648-1.036-0.857-1.452z"/>
		<path d="m68.392 53.954l0.069 0.023c0.473 0.158 0.473 0.232 0.473 0.479v6.458h1.032v-7.26l-1.503 0.287-0.071 0.013z"/>
		<path d="m74.717 54.904c0.333 0 0.595-0.261 0.595-0.595s-0.262-0.595-0.595-0.595c-0.345 0-0.596 0.25-0.596 0.595s0.251 0.595 0.596 0.595z"/>
		<path d="m76.345 54.904c0.339 0 0.595-0.256 0.595-0.595 0-0.34-0.256-0.595-0.595-0.595s-0.595 0.256-0.595 0.595c-1e-3 0.34 0.255 0.595 0.595 0.595z"/>
		<path d="m79.498 61.916c-0.345 0-0.595 0.245-0.595 0.583 0 0.345 0.251 0.595 0.595 0.595 0.333 0 0.595-0.262 0.595-0.595 0-0.327-0.262-0.583-0.595-0.583z"/>
		<path d="m81.125 61.916c-0.339 0-0.596 0.251-0.596 0.583 0 0.34 0.257 0.595 0.596 0.595s0.596-0.256 0.596-0.595c0-0.332-0.257-0.583-0.596-0.583z"/>
		<path d="m85.71 55.834l-1.514 0.287-0.073 0.014 0.071 0.023c0.495 0.157 0.495 0.235 0.495 0.491v2.745c0 0.697-0.279 1.055-0.829 1.066h-1.017c-0.773 0-1.247-1.002-1.247-1.721v-2.904l-1.514 0.287-0.07 0.013 0.067 0.023c0.454 0.159 0.484 0.203 0.484 0.434v2.836c0 0.694-0.271 1.031-0.827 1.031h-1.582c-0.471-0.04-0.569-0.503-0.569-0.885v-2.926c0-0.224 9e-3 -0.519 0.078-0.821l5e-3 -0.023h-0.597l-5e-3 6e-3c-0.058 0.058-0.066 0.101-0.072 0.136-3e-3 0.014-5e-3 0.027-0.011 0.041-0.058 0.173-0.093 0.245-0.108 0.265-0.024-0.016-0.086-0.057-0.18-0.117l-7e-3 -4e-3c-0.26-0.169-0.694-0.45-1.338-0.45-1.462 0-2.336 1.319-2.336 2.595 0 1.456 0.941 2.64 2.098 2.64 0.865 0 1.403-0.571 1.622-1.097 0.041 0.991 0.722 1.086 1.418 1.097h1.786c0.599 0 1.372-0.15 1.676-0.86 0.377 0.555 0.876 0.86 1.409 0.86h1.029c1.023 0 1.658-0.57 1.658-1.487v-3.595zm-9.248 3.655c-0.181 0.6-0.665 1.004-1.202 1.004-0.438 0-1.179-0.453-1.179-2.15 0-1.645 0.684-2.229 1.27-2.229 0.503 0 0.841 0.211 1.034 0.646 0.178 0.403 0.201 0.943 0.201 1.369-1e-3 0.584-0.022 1.016-0.124 1.36z"/>
		<path d="m84.347 61.893c-0.34 0-0.607 0.266-0.607 0.606 0 0.328 0.273 0.595 0.607 0.595s0.606-0.267 0.606-0.595c0-0.34-0.266-0.606-0.606-0.606z"/>
		<path d="m98.284 53.954l0.071 0.023c0.484 0.154 0.484 0.223 0.484 0.479v4.936c0 0.707-0.294 1.066-0.873 1.066h-2.962c-0.344 0-0.498-0.062-0.633-0.17 1.093-0.592 2.098-1.287 2.098-2.342 0-1.226-0.948-2.018-2.415-2.018-0.741 0-1.631 0.294-2.575 0.85-0.055 0.031-0.088 0.057-0.115 0.078-0.012 9e-3 -0.023 0.017-0.033 0.024l-0.019 0.013 0.016 0.016c0.028 0.028 0.118 0.152 0.197 0.262l0.091 0.121c0.202 0.265 0.54 0.707 0.714 1.035 0.595 1.202 0.81 1.541 1.129 1.907-0.291 0.165-0.945 0.223-1.067 0.223h-3.266c0.107-0.621 0.121-1.281 0.121-1.789v-2.836l-1.599 0.3 0.071 0.023c0.495 0.157 0.495 0.235 0.495 0.491v2.868c-0.07 1.667-0.518 2.808-2.529 3.349l-0.105 0.028 0.109 9e-3c0.369 0.03 0.643 0.045 0.816 0.045 1.38 0 2.209-0.665 2.535-2.033h3.625c0.604 0 0.894-0.124 1.203-0.288 4e-3 2e-3 7e-3 4e-3 0.011 5e-3 0.16 0.107 0.43 0.283 1.284 0.283h3.04c1.03 0 1.67-0.57 1.67-1.487v-5.773l-1.515 0.287-0.074 0.015zm-5.139 4.471c-0.265-0.586-0.549-1.052-0.892-1.466 0.614-0.339 1.241-0.518 1.814-0.518 0.781 0 1.247 0.546 1.247 1.461 0 1.073-0.543 1.498-1.312 1.975-0.278-0.316-0.588-0.915-0.857-1.452z"/>
		<path d="m100.8 53.954l0.069 0.023c0.473 0.158 0.473 0.232 0.473 0.479v6.458h1.032v-7.26l-1.503 0.287-0.071 0.013z"/>
		<path d="m107.12 54.904c0.333 0 0.595-0.261 0.595-0.595s-0.262-0.595-0.595-0.595c-0.345 0-0.595 0.25-0.595 0.595-1e-3 0.345 0.25 0.595 0.595 0.595z"/>
		<path d="m108.75 54.904c0.339 0 0.595-0.256 0.595-0.595 0-0.34-0.256-0.595-0.595-0.595s-0.595 0.256-0.595 0.595c0 0.34 0.256 0.595 0.595 0.595z"/>
		<path d="m137.05 53.966c0.507 0.157 0.507 0.232 0.507 0.479v4.947c0 0.302-0.056 0.64-0.263 0.853-7e-3 8e-3 -0.017 0.013-0.024 0.02-0.078 0.073-0.174 0.13-0.296 0.162-0.013 4e-3 -0.027 5e-3 -0.04 8e-3 -0.063 0.013-0.13 0.023-0.206 0.023h-0.87c-0.529 0-0.902-0.51-1.077-0.988 0.022-0.122 0.034-0.258 0.034-0.405 0-0.554-0.203-1.156-0.542-1.61-0.282-0.377-0.785-0.826-1.579-0.826-1.69 0-1.966 1.069-2.234 2.104-0.143 0.549-0.321 1.232-0.66 1.561-0.121 0.101-0.291 0.137-0.393 0.159l-0.024 6e-3h-0.735c-0.529 0-0.903-0.51-1.077-0.988 0.022-0.122 0.034-0.258 0.034-0.405 0-0.554-0.203-1.156-0.543-1.61-0.282-0.377-0.785-0.826-1.579-0.826-1.69 0-1.966 1.069-2.234 2.104-0.143 0.549-0.321 1.232-0.66 1.561-0.121 0.101-0.292 0.137-0.395 0.159l-0.023 6e-3h-0.689c-0.768 0-1.258-1.019-1.258-1.721v-5.107l-1.503 0.287-0.069 0.013 0.067 0.023c0.455 0.159 0.484 0.203 0.484 0.435v5.038c0 0.684-0.279 1.031-0.829 1.031h-2.388v-1.924c0-1.096-1.021-2.117-2.293-2.312 1.102-0.344 2.665-1.18 2.722-1.776l1e-3 -7e-3 -0.761-1.034-0.03-0.041-4e-3 0.051c-0.087 1.171-2.233 2.705-2.975 2.705h-0.282l-0.284 0.433h1.074c0.567 0 1.031 0.24 1.344 0.695 0.243 0.355 0.389 0.849 0.389 1.319v1.89h-4.331c-0.471-0.04-0.569-0.503-0.569-0.885v-2.926c0-0.224 9e-3 -0.519 0.078-0.821l5e-3 -0.023h-0.597l-5e-3 6e-3c-0.058 0.058-0.066 0.101-0.072 0.136-3e-3 0.014-5e-3 0.027-0.011 0.041-0.058 0.173-0.093 0.245-0.108 0.265-0.024-0.016-0.086-0.057-0.18-0.117l-7e-3 -4e-3c-0.26-0.169-0.694-0.45-1.338-0.45-1.462 0-2.336 1.319-2.336 2.595 0 1.456 0.941 2.64 2.098 2.64 0.865 0 1.403-0.571 1.622-1.097 0.041 0.991 0.722 1.086 1.418 1.097h8.024c0.507 0 0.903-0.116 1.203-0.318 9e-3 -6e-3 0.018-0.014 0.027-0.02 0.124-0.088 0.228-0.194 0.312-0.317 6e-3 -9e-3 0.011-0.017 0.017-0.026 0.039-0.06 0.088-0.111 0.117-0.179 0.377 0.555 0.88 0.86 1.42 0.86h0.486c0.522 0 0.878-0.139 1.186-0.465 0.367 0.463 0.845 0.95 1.843 0.95 0.12 0 0.227-0.027 0.341-0.041 0.029-3e-3 0.058-6e-3 0.086-0.01 0.196-0.029 0.379-0.079 0.552-0.148 0.039-0.015 0.079-0.029 0.116-0.047 0.157-0.072 0.299-0.163 0.431-0.267 0.029-0.023 0.06-0.045 0.087-0.069 0.12-0.106 0.224-0.226 0.319-0.359 0.024-0.034 0.049-0.068 0.071-0.104 0.039-0.063 0.091-0.114 0.125-0.181 0.415 0.525 0.868 0.74 1.556 0.74h0.498c0.524 0 0.879-0.139 1.185-0.464 0.369 0.463 0.849 0.95 1.844 0.95 0.12 0 0.228-0.027 0.342-0.041 0.028-3e-3 0.057-6e-3 0.084-0.01 0.198-0.03 0.383-0.08 0.558-0.15 0.037-0.015 0.075-0.028 0.11-0.044 0.16-0.074 0.304-0.166 0.439-0.273 0.026-0.021 0.054-0.041 0.079-0.063 0.122-0.108 0.228-0.231 0.324-0.366 0.022-0.032 0.045-0.062 0.065-0.095 0.04-0.064 0.093-0.115 0.127-0.184 0.414 0.525 0.867 0.74 1.556 0.74h0.825c1.03 0 1.67-0.57 1.67-1.487v-5.784l-1.601 0.301 0.072 0.022zm-28.189 5.523c-0.181 0.6-0.665 1.004-1.202 1.004-0.438 0-1.179-0.453-1.179-2.15 0-1.645 0.684-2.229 1.27-2.229 0.503 0 0.841 0.211 1.034 0.646 0.178 0.403 0.201 0.943 0.201 1.369-1e-3 0.584-0.021 1.016-0.124 1.36zm16.361 1.478c-0.731 0-1.261-0.652-1.486-0.927-2e-3 -5e-3 -0.021-0.043-0.049-0.065 0.194-0.373 0.294-0.747 0.389-1.109l0.023-0.088 0.024-0.069c0.211-0.826 0.43-1.68 1.156-1.68h0.044c0.83 0.034 1.202 1.076 1.202 2.093 0 1-0.597 1.845-1.303 1.845zm7.211 0c-0.73 0-1.26-0.649-1.488-0.929-9e-3 -0.018-0.026-0.046-0.048-0.064 0.196-0.377 0.296-0.755 0.391-1.121l0.02-0.076 0.024-0.069c0.211-0.826 0.43-1.68 1.157-1.68h0.044c0.83 0.034 1.202 1.076 1.202 2.093 1e-3 1.001-0.595 1.846-1.302 1.846z"/>
		<path d="m139.58 53.941l-0.071 0.013 0.069 0.023c0.473 0.158 0.473 0.232 0.473 0.479v6.458h1.033v-7.26l-1.504 0.287z"/>
	</g>
	<path d="m141.57 47.665h-53.485c-41.309 0-74.796 0.485-74.796 1.083s33.487 1.083 74.796 1.083h53.485v-2.166z" fill="#8AC340"/>
		<g fill="#fff">
			<path d="m15.406 41.63l-0.606-1.972h-2.291l-0.606 1.972h-0.934l2.214-6.638h1.097l2.224 6.638h-1.098zm-1.732-5.686h-0.019l-0.943 3.079h1.896l-0.934-3.079z"/>
			<path d="m18.863 43.795c-0.452 0-0.886-0.068-1.319-0.183v-0.952c0.462 0.279 0.914 0.558 1.473 0.558 1.299 0 1.136-1.289 1.136-2.222h-0.019c-0.27 0.462-0.664 0.635-1.194 0.635-1.347 0-1.723-1.203-1.723-2.338 0-1.174 0.327-2.347 1.723-2.347 0.578 0 0.982 0.337 1.194 0.856h0.019v-0.75h0.972v4.445c-1e-3 1.557-0.655 2.298-2.262 2.298zm0.337-6.234c-0.828 0-0.924 1.125-0.924 1.732 0 0.606 0.087 1.78 0.924 1.78 0.886 0 0.924-1.087 0.924-1.732 0-0.626-0.068-1.78-0.924-1.78z"/>
			<path d="m23.753 39.533v2.097h-0.972v-4.579h0.972v1.164h0.019c0.327-0.664 0.674-1.203 1.482-1.27v1.01c-1.077 0.029-1.501 0.491-1.501 1.578z"/>
			<path d="m26.42 35.954v-0.962h1.049v0.962h-1.049zm0.038 5.676v-4.579h0.972v4.579h-0.972z"/>
			<path d="m31.387 38.542c0-0.472-0.029-1.193-0.664-1.193-0.703 0-0.847 0.962-0.847 1.482 0 1.01 0.414 2.396 1.646 2.396 0.279 0 0.558-0.068 0.818-0.173v0.452c-0.395 0.144-0.809 0.231-1.222 0.231-1.617 0-2.3-1.058-2.3-2.578 0-1.289 0.558-2.213 1.944-2.213 1.078 0 1.646 0.51 1.646 1.597l-1.021-1e-3z"/>
			<path d="m36.267 41.63v-1.087h-0.019c-0.308 0.673-0.809 1.193-1.598 1.193-0.77 0-1.155-0.625-1.155-1.337v-3.348h0.972v2.867c0 0.404 0.019 1.097 0.577 1.097 0.905 0 1.232-1.356 1.232-2.068v-1.895h0.972v4.579l-0.981-1e-3z"/>
			<path d="m38.964 41.63v-6.638h0.972v6.638h-0.972z"/>
			<path d="m42.92 37.551v2.636c0 0.558 0.01 1 0.693 1 0.154 0 0.308-0.019 0.452-0.077v0.558c-0.221 0.058-0.452 0.067-0.674 0.067-0.837 0-1.444-0.221-1.444-1.164v-3.021h-0.731v-0.5h0.731v-1.078l0.972-0.587v1.665h1.251v0.5l-1.25 1e-3z"/>
			<path d="m48.051 41.63v-1.087h-0.019c-0.308 0.673-0.809 1.193-1.598 1.193-0.77 0-1.155-0.625-1.155-1.337v-3.348h0.972v2.867c0 0.404 0.019 1.097 0.577 1.097 0.905 0 1.232-1.356 1.232-2.068v-1.895h0.972v4.579l-0.981-1e-3z"/>
			<path d="m51.671 39.533v2.097h-0.972v-4.579h0.972v1.164h0.019c0.327-0.664 0.674-1.203 1.482-1.27v1.01c-1.078 0.029-1.501 0.491-1.501 1.578z"/>
			<path d="m56.407 41.63v-0.635h-0.019c-0.27 0.462-0.751 0.741-1.29 0.741-0.654 0-1.251-0.452-1.251-1.145 0-1.289 1.588-1.462 2.56-1.51v-0.404c0-0.462 0.01-1.328-0.645-1.328-0.616 0-0.712 0.5-0.741 1h-1.021c0.077-1.068 0.741-1.404 1.762-1.404 1.27 0 1.617 0.558 1.617 1.732v2.953h-0.972zm0-2.145c-0.597 0.039-1.502 0.192-1.502 0.962 0 0.337 0.183 0.683 0.558 0.683 0.125 0 0.26-0.038 0.366-0.096 0.385-0.202 0.578-0.587 0.578-1.01v-0.539z"/>
			<path d="m59.074 41.63v-6.638h0.972v6.638h-0.972z"/>
			<path d="m66.226 41.63h-1.492v-6.638h1.492c2.243 0 3.013 1.059 3.013 3.252 0 2.222-0.693 3.386-3.013 3.386zm1.001-5.839c-0.308-0.135-0.664-0.163-1.001-0.163h-0.433v5.368h0.433c1.8 0 1.954-1.26 1.954-2.752 0-0.827-0.067-2.059-0.953-2.453z"/>
			<path d="m71.271 38.821c0 1.087 0.51 2.405 1.78 2.405 0.299 0 0.597-0.068 0.876-0.192v0.442c-0.462 0.192-0.837 0.259-1.338 0.259-1.588 0-2.291-1.106-2.291-2.597 0-1.308 0.549-2.193 1.954-2.193 1.241 0 1.761 0.702 1.761 1.876h-2.742zm0.943-1.472c-0.587 0-0.876 0.5-0.914 1.029h1.761c0-0.538-0.24-1.029-0.847-1.029z"/>
			<path d="m77.249 41.63h-0.847l-1.742-4.579h1.03l1.184 3.271h0.019l1.078-3.271h0.895l-1.617 4.579z"/>
			<path d="m80.493 38.821c0 1.087 0.51 2.405 1.78 2.405 0.299 0 0.597-0.068 0.876-0.192v0.442c-0.462 0.192-0.837 0.259-1.338 0.259-1.588 0-2.291-1.106-2.291-2.597 0-1.308 0.548-2.193 1.954-2.193 1.241 0 1.761 0.702 1.761 1.876h-2.742zm0.943-1.472c-0.587 0-0.876 0.5-0.914 1.029h1.761c1e-3 -0.538-0.24-1.029-0.847-1.029z"/>
			<path d="m84.604 41.63v-6.638h0.972v6.638h-0.972z"/>
			<path d="m88.994 41.736c-1.492 0-2.021-1.039-2.021-2.395s0.529-2.395 2.021-2.395 2.031 1.029 2.031 2.395-0.539 2.395-2.031 2.395zm0-4.387c-0.914 0-0.963 1.337-0.963 1.991s0.048 1.991 0.963 1.991c0.924 0 0.972-1.337 0.972-1.991s-0.048-1.991-0.972-1.991z"/>
			<path d="m94.539 41.736c-0.568 0-0.934-0.25-1.184-0.741h-0.019v2.694h-0.972v-6.638h0.972v0.75h0.019c0.221-0.51 0.607-0.856 1.184-0.856 1.415 0 1.732 1.222 1.732 2.395 0 1.145-0.366 2.396-1.732 2.396zm-0.25-4.175c-0.847 0-0.915 1.164-0.915 1.78 0 0.635 0.02 1.837 0.915 1.837 0.828 0 0.924-1.241 0.924-1.837 0-0.606-0.087-1.78-0.924-1.78z"/>
			<path d="m102.7 41.63v-2.953c0-0.394-0.019-1.01-0.558-1.01-0.837 0-1.02 1.443-1.02 2.059v1.905h-0.972v-2.867c0-0.423 0.01-1.097-0.577-1.097-0.856 0-1.001 1.443-1.001 2.068v1.895h-0.973v-4.579h0.972v1.087h0.019c0.192-0.625 0.693-1.193 1.386-1.193 0.674 0 1.097 0.49 1.136 1.135h0.019c0.279-0.616 0.626-1.135 1.386-1.135 0.963 0 1.155 0.779 1.155 1.577v3.107l-0.972 1e-3z"/>
			<path d="m105.98 38.821c0 1.087 0.51 2.405 1.78 2.405 0.299 0 0.597-0.068 0.876-0.192v0.442c-0.462 0.192-0.837 0.259-1.338 0.259-1.588 0-2.291-1.106-2.291-2.597 0-1.308 0.548-2.193 1.954-2.193 1.241 0 1.761 0.702 1.761 1.876h-2.742zm0.943-1.472c-0.587 0-0.876 0.5-0.914 1.029h1.761c0-0.538-0.24-1.029-0.847-1.029z"/>
			<path d="m112.82 41.63v-2.867c0-0.404-0.019-1.097-0.577-1.097-0.905 0-1.232 1.356-1.232 2.068v1.895h-0.972v-4.579h0.972v1.087h0.019c0.308-0.673 0.818-1.193 1.608-1.193 0.77 0 1.155 0.625 1.155 1.337v3.348l-0.973 1e-3z"/>
			<path d="m116.72 37.551v2.636c0 0.558 9e-3 1 0.693 1 0.154 0 0.308-0.019 0.452-0.077v0.558c-0.221 0.058-0.452 0.067-0.674 0.067-0.837 0-1.444-0.221-1.444-1.164v-3.021h-0.732v-0.5h0.732v-1.078l0.972-0.587v1.665h1.251v0.5l-1.25 1e-3z"/>
			<path d="m123.1 35.627v2.232h2.204v0.635h-2.204v3.136h-1.059v-6.638h3.388v0.635h-2.329z"/>
			<path d="m129.29 41.63v-1.087h-0.02c-0.308 0.673-0.808 1.193-1.598 1.193-0.77 0-1.155-0.625-1.155-1.337v-3.348h0.972v2.867c0 0.404 0.019 1.097 0.577 1.097 0.905 0 1.232-1.356 1.232-2.068v-1.895h0.972v4.579l-0.98-1e-3z"/>
			<path d="m134.72 41.63v-2.867c0-0.404-0.019-1.097-0.577-1.097-0.905 0-1.232 1.356-1.232 2.068v1.895h-0.972v-4.579h0.972v1.087h0.019c0.308-0.673 0.818-1.193 1.608-1.193 0.77 0 1.155 0.625 1.155 1.337v3.348l-0.973 1e-3z"/>
			<path d="m139.97 41.63v-0.75h-0.019c-0.221 0.51-0.616 0.856-1.193 0.856-1.405 0-1.723-1.222-1.723-2.395 0-1.135 0.366-2.395 1.723-2.395 0.568 0 0.933 0.25 1.193 0.741h0.019v-2.694h0.972v6.638l-0.972-1e-3zm-0.952-4.127c-0.828 0-0.924 1.241-0.924 1.837 0 0.606 0.087 1.78 0.924 1.78 0.847 0 0.915-1.164 0.915-1.78-1e-3 -0.634-0.02-1.837-0.915-1.837z"/>
		</g>
	<g fill="#fff">
		<path d="m2.469 18.418c0.45 0 0.823-0.372 0.823-0.807 0-0.434-0.373-0.791-0.823-0.791-0.435 0-0.807 0.357-0.807 0.791-1e-3 0.434 0.372 0.807 0.807 0.807z"/>
		<path d="m4.564 18.418c0.435 0 0.807-0.372 0.807-0.807 0-0.434-0.373-0.791-0.807-0.791-0.435 0-0.792 0.357-0.792 0.791 1e-3 0.434 0.358 0.807 0.792 0.807z"/>
		<path d="m10.48 28.179c-0.45 0-0.792 0.357-0.792 0.792s0.342 0.807 0.792 0.807c0.435 0 0.807-0.372 0.807-0.807s-0.373-0.792-0.807-0.792z"/>
		<path d="m12.56 28.179c-0.435 0-0.792 0.357-0.792 0.792s0.357 0.807 0.792 0.807 0.807-0.372 0.807-0.807-0.372-0.792-0.807-0.792z"/>
		<path d="m17.466 25.494v-2.902c0-0.885 0.559-1.552 1.49-1.552 0.466 0 0.885 0.217 1.258 0.667l1.102-0.993c-0.621-0.605-1.351-0.915-2.189-0.915-0.978 0-1.754 0.295-2.313 0.884-0.543 0.575-0.823 1.304-0.823 2.157v2.654h-1.723v0.031h-0.497c-1.025 0-1.537-0.512-1.537-1.536v-4.19l-1.459 0.434v3.709c0 1.055-0.512 1.583-1.553 1.583h-1.583c-1.009 0-1.521-0.528-1.521-1.583v-4.143h-3.153c-1.971 0-2.965 1.149-2.965 3.445 0 2.374 0.994 3.554 2.965 3.554 1.165 0 1.925-0.357 2.282-1.087 0.326 0.73 1.102 1.087 2.313 1.087h1.755c0.947 0 1.677-0.279 2.205-0.822 0.528 0.543 1.242 0.822 2.158 0.822h8.881l-1.102-1.304h-3.991zm-12.824-2.25c0 0.76-0.109 1.319-0.311 1.66-0.233 0.419-0.668 0.621-1.273 0.621s-1.04-0.202-1.273-0.621c-0.202-0.341-0.31-0.9-0.31-1.66 0-0.761 0.109-1.319 0.31-1.645 0.233-0.404 0.668-0.606 1.273-0.606h1.584v2.251z"/>
		<polygon points="23.894 26.798 25.369 26.798 25.369 16.788 23.894 17.254"/>
		<path d="m29.933 26.379c0 1.304-0.761 2.11-2.018 2.11-0.885 0-1.661-0.202-2.36-0.589l0.699 1.459c0.45 0.279 0.994 0.419 1.661 0.419 1.071 0 1.925-0.31 2.546-0.947 0.637-0.636 0.947-1.459 0.947-2.498v-6.533l-1.475 0.434v6.145z"/>
		<path d="m36.609 18.418c0.435 0 0.792-0.372 0.792-0.807 0-0.45-0.357-0.822-0.792-0.822s-0.807 0.372-0.807 0.822c0 0.434 0.372 0.807 0.807 0.807z"/>
		<path d="m41.701 23.911c0 1.055-0.513 1.583-1.522 1.583h-2.732v-5.695l-1.475 0.434v6.146c0 1.304-0.761 2.11-2.018 2.11-0.885 0-1.661-0.202-2.36-0.589l0.699 1.459c0.45 0.279 0.994 0.419 1.661 0.419 2.003 0 3.276-1.18 3.478-2.98h2.826c0.885 0 1.599-0.264 2.127-0.776 0.528-0.527 0.792-1.179 0.792-1.971v-7.232l-1.475 0.434-1e-3 6.658z"/>
		<polygon points="44.511 26.798 45.986 26.798 45.986 16.788 44.511 17.254"/>
		<path d="m52.305 18.418c0.45 0 0.823-0.372 0.823-0.807 0-0.434-0.373-0.791-0.823-0.791-0.435 0-0.807 0.357-0.807 0.791s0.372 0.807 0.807 0.807z"/>
		<path d="m54.401 18.418c0.435 0 0.807-0.372 0.807-0.807 0-0.434-0.373-0.791-0.807-0.791-0.435 0-0.792 0.357-0.792 0.791s0.357 0.807 0.792 0.807z"/>
		<path d="m60.316 28.179c-0.45 0-0.792 0.357-0.792 0.792s0.342 0.807 0.792 0.807c0.435 0 0.807-0.372 0.807-0.807 1e-3 -0.435-0.372-0.792-0.807-0.792z"/>
		<path d="m62.397 28.179c-0.435 0-0.792 0.357-0.792 0.792s0.357 0.807 0.792 0.807 0.807-0.372 0.807-0.807-0.373-0.792-0.807-0.792z"/>
		<path d="m77.658 18.418c0.435 0 0.808-0.372 0.808-0.807 0-0.434-0.373-0.791-0.808-0.791s-0.807 0.357-0.807 0.791 0.373 0.807 0.807 0.807z"/>
		<path d="m82.642 18.418c0.435 0 0.808-0.372 0.808-0.807 0-0.434-0.373-0.791-0.808-0.791-0.45 0-0.792 0.357-0.792 0.791s0.341 0.807 0.792 0.807z"/>
		<path d="m84.722 18.418c0.435 0 0.808-0.372 0.808-0.807 0-0.434-0.373-0.791-0.808-0.791-0.419 0-0.792 0.357-0.792 0.791s0.373 0.807 0.792 0.807z"/>
		<path d="m88.914 23.911c0 1.055-0.512 1.583-1.521 1.583h-0.916v0.031h-0.466c-1.025 0-1.537-0.512-1.537-1.536v-4.19l-1.46 0.434v3.709c0 1.055-0.512 1.583-1.552 1.583h-1.49c-1.025 0-1.537-0.512-1.537-1.536v-4.19l-1.46 0.434v3.709c0 1.055-0.512 1.583-1.552 1.583h-0.698v-0.031l-0.311 0.031c-1.102 0-1.739-0.512-1.91-1.521-0.14-0.915-0.419-1.598-0.869-2.017-0.497-0.465-1.242-0.698-2.251-0.698-1.832 0-2.872 0.9-3.136 2.715-0.124 0.993-0.745 1.49-1.848 1.49h-0.404v0.031h-0.388c-1.025 0-1.537-0.512-1.537-1.536v-4.19l-1.459 0.434v3.709c0 1.055-0.512 1.583-1.553 1.583h-1.584c-1.009 0-1.521-0.528-1.521-1.583v-4.143h-3.152c-1.972 0-2.965 1.149-2.965 3.445 0 2.374 0.994 3.554 2.965 3.554 1.165 0 1.925-0.357 2.282-1.087 0.326 0.73 1.102 1.087 2.313 1.087h1.754c0.947 0 1.677-0.279 2.205-0.822 0.528 0.543 1.242 0.822 2.158 0.822h0.978c0.838 0 1.475-0.264 1.925-0.776 0.419 1.18 1.553 1.862 2.965 1.862 1.49 0 2.639-0.76 3.012-2.064 0.473 0.621 1.147 0.943 2.002 0.972v6e-3h1.117c0.947 0 1.677-0.279 2.204-0.822 0.528 0.543 1.242 0.822 2.158 0.822h1.677c0.947 0 1.677-0.279 2.204-0.822 0.528 0.543 1.242 0.822 2.158 0.822h1.553c0.885 0 1.599-0.264 2.127-0.776 0.528-0.527 0.792-1.179 0.792-1.971v-7.232l-1.475 0.434v6.658h3e-3zm-34.435-0.667c0 0.76-0.109 1.319-0.311 1.66-0.233 0.419-0.668 0.621-1.273 0.621-0.606 0-1.04-0.202-1.273-0.621-0.202-0.341-0.31-0.9-0.31-1.66 0-0.761 0.109-1.319 0.31-1.645 0.233-0.404 0.668-0.606 1.273-0.606h1.584v2.251zm14.904 3.399c-1.102 0-1.646-0.683-1.646-2.064s0.543-2.064 1.646-2.064c1.087 0 1.63 0.683 1.63 2.064s-0.543 2.064-1.63 2.064z"/>
		<polygon points="91.724 26.798 93.199 26.798 93.199 16.788 91.724 17.254"/>
		<path d="m103.76 18.418c0.435 0 0.807-0.372 0.807-0.807 0-0.434-0.373-0.791-0.807-0.791s-0.807 0.357-0.807 0.791c-1e-3 0.434 0.372 0.807 0.807 0.807z"/>
		<path d="m101.66 18.418c0.45 0 0.823-0.372 0.823-0.807 0-0.434-0.373-0.791-0.823-0.791-0.435 0-0.807 0.357-0.807 0.791s0.373 0.807 0.807 0.807z"/>
		<path d="m102.7 19.892c-1.071 0-1.863 0.373-2.376 1.118-0.419 0.605-0.636 1.412-0.636 2.405s0.217 1.8 0.636 2.436c0.512 0.745 1.304 1.118 2.376 1.118 0.652 0 1.149-0.171 1.506-0.497v0.062c0.015 0.73-0.28 1.257-0.885 1.568-0.435 0.217-1.025 0.31-1.786 0.295-1.133 0-1.956-0.295-2.438-0.869-0.481-0.574-0.73-1.598-0.73-3.057l-1.319 0.481c0.124 1.676 0.466 2.855 1.009 3.538 0.683 0.853 1.832 1.288 3.462 1.288 2.733 0 4.114-1.071 4.145-3.228 0-0.171 0.016-0.559 0.031-1.148 0.047-0.544 0.062-0.993 0.062-1.335 2e-3 -2.778-1.023-4.175-3.057-4.175zm0 5.757c-1.04 0-1.568-0.745-1.568-2.234 0-1.49 0.528-2.235 1.568-2.235s1.568 0.745 1.568 2.235-0.528 2.234-1.568 2.234z"/>
		<path d="m110.12 20.063c-1.071 0-1.879 0.373-2.391 1.102-0.419 0.606-0.636 1.397-0.636 2.374s0.217 1.754 0.636 2.359c0.512 0.745 1.32 1.117 2.391 1.117 0.544 0 1.025-0.124 1.475-0.372-0.124 1.164-0.745 1.785-1.863 1.847-0.761 0.047-1.584-0.124-2.469-0.543l0.652 1.428c0.435 0.264 1.04 0.403 1.817 0.403 1.102 0 1.941-0.357 2.515-1.055 0.543-0.621 0.808-1.459 0.823-2.53 0-0.155 0.016-0.481 0.047-0.977 0.016-0.45 0.016-0.838 0.016-1.133 0-1.195-0.171-2.11-0.513-2.747-0.482-0.854-1.32-1.273-2.5-1.273zm0 5.664c-1.04 0-1.568-0.73-1.568-2.188 0-1.474 0.528-2.204 1.568-2.204s1.553 0.73 1.553 2.204c-1e-3 1.459-0.513 2.188-1.553 2.188z"/>
		<path d="m125.62 18.418c0.435 0 0.808-0.372 0.808-0.807 0-0.434-0.373-0.791-0.808-0.791s-0.807 0.357-0.807 0.791 0.373 0.807 0.807 0.807z"/>
		<path d="m140.23 21.661c-0.761-1.226-1.91-1.831-3.416-1.785-1.723 0.046-3.074 0.807-4.052 2.297-0.481 0.714-0.823 1.474-1.025 2.297v-3.321l-1.475 0.419v3.926h-1.832v0.031h-0.497c-1.025 0-1.537-0.512-1.537-1.536v-4.19l-1.46 0.434v3.709c0 1.055-0.512 1.583-1.552 1.583h-0.637v-0.031h-2.111v-3.026c0-0.807-0.28-1.443-0.854-1.924s-1.304-0.729-2.22-0.729c-0.699 0-1.398 0.31-2.096 0.915v1.676c0.512-0.9 1.211-1.35 2.096-1.35 1.071 0 1.614 0.512 1.614 1.521v2.949h-3.819l-0.885 1.273h9.005c0.947 0 1.677-0.279 2.204-0.822 0.528 0.543 1.242 0.822 2.158 0.822h13.011c0.062-1.49 0.093-2.142 0.093-1.971 1e-3 -1.336-0.232-2.391-0.713-3.167zm-0.792 3.833h-6.925c0.062-0.884 0.497-1.769 1.32-2.685 0.916-1.055 1.91-1.583 3.012-1.583 0.901 0 1.584 0.373 2.065 1.118 0.388 0.636 0.574 1.428 0.574 2.39 1e-3 0.264-0.015 0.512-0.046 0.76z"/>
	</g>
</svg>
