<?xml version="1.0" encoding="utf-8"?>
<!-- Generator: Adobe Illustrator 17.0.0, SVG Export Plug-In . SVG Version: 6.00 Build 0)  -->
<!DOCTYPE svg PUBLIC "-//W3C//DTD SVG 1.1//EN" "http://www.w3.org/Graphics/SVG/1.1/DTD/svg11.dtd">
<svg version="1.1" id="Layer_1" xmlns="http://www.w3.org/2000/svg" xmlns:xlink="http://www.w3.org/1999/xlink" x="0px" y="0px"
	 width="280px" height="85px" viewBox="0 0 280 85" enable-background="new 0 0 280 85" xml:space="preserve">
<g>
	<g>
		<path fill="#231F20" d="M25.02,54.52c0,0.669,37.855,1.21,84.552,1.21h60.461v-2.422h-60.461
			C62.875,53.309,25.02,53.851,25.02,54.52z M227.023,0.001c-23.735,0-42.977,19.027-42.977,42.499
			c0,23.472,19.241,42.5,42.977,42.5c23.735,0,42.976-19.028,42.976-42.5C270,19.028,250.759,0.001,227.023,0.001z M227.027,82.541
			c-22.362,0-40.49-17.927-40.49-40.041c0-22.114,18.128-40.041,40.49-40.041c22.362,0,40.49,17.927,40.49,40.041
			C267.518,64.614,249.389,82.541,227.027,82.541z M226.699,66.444c-13.685-5.432-25.921-6.231-25.921-6.231
			c8.531,1.346,16.171,4.662,22.004,7.903c-2.576,1.178-5.167,2.528-7.703,4.076c0,0,1.788,2.995,3.973,3.744
			c0,0,2.844-2.478,7.647-5.503c4.803,3.025,7.647,5.503,7.647,5.503c2.185-0.749,3.973-3.744,3.973-3.744
			c-2.536-1.548-5.127-2.898-7.703-4.076c5.833-3.241,13.473-6.557,22.004-7.903C252.62,60.213,240.384,61.012,226.699,66.444z
			 M204.099,27.211c5.622-5.583,9.232-6.576,13.727-7.272c-4.604,2.89-8.905,9.61-7.564,14.341
			c2.432-5.019,6.676-9.923,10.59-11.711c-2.213,3.069-2.285,6.892-0.154,10.157c0.494-4.235,3.494-8.305,6.002-11.031
			c2.507,2.726,5.508,6.795,6.001,11.031c2.131-3.265,2.06-7.087-0.154-10.157c3.913,1.787,8.158,6.692,10.589,11.711
			c1.341-4.73-2.96-11.451-7.564-14.341c4.495,0.696,8.105,1.689,13.727,7.272c-1.855-7.469-8.387-10.057-13.608-10.98
			c5.746-0.487,6.887,0.09,11.962,2.167c-5.511-5.356-9.373-6.321-14.893-5.799c0.946-0.816,1.85-1.258,3.241-1.62
			c-2.315-0.901-5.937-0.427-7.346,0.906c0,0-0.276-2.454-1.938-3.443V8.419c-0.007,0.004-0.012,0.008-0.018,0.012
			c-0.006-0.004-0.012-0.008-0.018-0.012v0.023c-1.662,0.989-1.939,3.443-1.939,3.443c-1.409-1.333-5.031-1.807-7.346-0.906
			c1.391,0.362,2.295,0.804,3.241,1.62c-5.519-0.522-9.381,0.444-14.893,5.799c5.075-2.077,6.216-2.654,11.962-2.167
			C212.485,17.154,205.954,19.742,204.099,27.211z M228.828,30.822c-0.297-0.748-2.04-4.644-2.039-4.651
			c0.001,0.006-3.915,7.047-3.783,10.794c0.057,1.603,0.544,3.084,1.303,4.091c0.56,0.75,1.07,0.893,1.842,1.083
			c0.179,0.09,0.543,0.066,0.591-0.092c1.201-3.917,0.137-7.924,0.137-7.924s1.632,2.338,1.303,7.902
			c-0.013,0.238,0.125,0.252,0.154,0.247c2.607-0.381,2.597-4.052,2.517-5.658C230.772,34.991,229.597,32.307,228.828,30.822z
			 M227.081,63.769l1.144-0.5c-0.279-10.804-6.888-11.419-10.084-11.548c-4.648-0.188-5.184-0.906-5.384-1.245
			c0.227,1.195,0.703,7.287,8.297,8.738c1.085,0.207,2.693,0.403,3.468,1.011c-0.888-7.06-7.489-6.885-8.817-7.397
			c1.254,0.233,10.659-1.528,10.225,10.441L227.081,63.769z M229.941,57.316c-0.563,0.83-1.346,3.1-1.342,3.134
			c0.824-0.592,3.303-1.034,4.368-1.237c7.594-1.451,8.07-7.544,8.297-8.738c-0.2,0.34-0.736,1.057-5.384,1.245
			c-2.432,0.098-6.472,0.363-8.567,3.892c0.365,0.651,0.655,1.375,0.867,2.173c2.607-5.506,9.042-4.755,10.136-4.958
			C237.229,53.246,232.566,53.449,229.941,57.316z M228.043,51.776c7.139,0.083,9.464-10.147,9.64-12.861
			c-0.35,0.673-0.925,1.08-1.514,1.292c-0.589,0.213-1.202,0.255-1.808,0.348c-1.816,0.279-3.639,1.06-5.026,2.664
			c-1.387,1.604-2.267,3.955-1.953,6.382c0.496-0.777,1.883-3.365,5.674-4.185C231.312,46.378,227.877,49.47,228.043,51.776z
			 M217.783,40.207c-0.589-0.213-1.163-0.62-1.514-1.292c0.175,2.714,2.501,12.944,9.64,12.861c0.165-2.305-3.269-5.572-5.012-6.532
			c3.791,0.819,5.178,3.581,5.674,4.358c0.313-2.427-0.567-4.779-1.954-6.382c-1.387-1.604-3.211-2.385-5.026-2.664
			C218.986,40.462,218.372,40.42,217.783,40.207z M27.416,46.56h1.24l-2.513-7.424h-1.24L22.4,46.56h1.055l0.685-2.205h2.589
			L27.416,46.56z M24.369,43.644l1.066-3.443h0.022l1.055,3.443H24.369z M31.497,48.335c-0.631,0-1.143-0.312-1.665-0.625v1.065
			c0.49,0.13,0.979,0.205,1.491,0.205c1.817,0,2.557-0.828,2.557-2.571v-4.971h-1.099v0.839h-0.022
			c-0.239-0.581-0.696-0.957-1.349-0.957c-1.578,0-1.948,1.312-1.948,2.625c0,1.269,0.425,2.614,1.948,2.614
			c0.599,0,1.045-0.194,1.349-0.71h0.022C32.781,46.893,32.966,48.335,31.497,48.335z M31.704,45.936
			c-0.946,0-1.045-1.313-1.045-1.991c0-0.678,0.109-1.937,1.045-1.937c0.969,0,1.044,1.291,1.044,1.99
			C32.748,44.72,32.705,45.936,31.704,45.936z M36.852,44.214c0-1.216,0.478-1.732,1.697-1.765V41.32
			c-0.914,0.074-1.305,0.677-1.675,1.42h-0.022v-1.302h-1.099v5.121h1.099V44.214z M41.052,39.135h-1.186v1.076h1.186V39.135z
			 M41.008,46.56v-5.121H39.91v5.121H41.008z M44.73,41.772c0.718,0,0.751,0.807,0.751,1.334h1.153c0-1.216-0.642-1.786-1.861-1.786
			c-1.567,0-2.198,1.032-2.198,2.474c0,1.7,0.772,2.883,2.6,2.883c0.468,0,0.936-0.096,1.382-0.257v-0.506
			c-0.294,0.118-0.609,0.193-0.925,0.193c-1.393,0-1.86-1.549-1.86-2.679C43.773,42.848,43.936,41.772,44.73,41.772z M52.108,46.56
			v-5.121h-1.099v2.12c0,0.796-0.37,2.313-1.393,2.313c-0.631,0-0.653-0.775-0.653-1.227v-3.206h-1.099v3.744
			c0,0.796,0.435,1.495,1.306,1.495c0.892,0,1.458-0.58,1.806-1.334h0.021v1.216H52.108z M55.145,46.56v-7.424h-1.098v7.424H55.145z
			 M59.933,41.998v-0.559h-1.414v-1.861l-1.099,0.656v1.205h-0.827v0.559h0.827v3.378c0,1.055,0.685,1.302,1.632,1.302
			c0.251,0,0.512-0.01,0.762-0.075v-0.624c-0.163,0.064-0.337,0.086-0.511,0.086c-0.773,0-0.784-0.495-0.784-1.119v-2.948H59.933z
			 M61.185,41.438v3.744c0,0.796,0.435,1.495,1.306,1.495c0.892,0,1.458-0.58,1.806-1.334h0.022v1.216h1.11v-5.121h-1.099v2.12
			c0,0.796-0.37,2.313-1.393,2.313c-0.631,0-0.653-0.775-0.653-1.227v-3.206H61.185z M67.312,41.438v5.121h1.099v-2.345
			c0-1.216,0.479-1.732,1.698-1.765V41.32c-0.914,0.074-1.306,0.677-1.676,1.42H68.41v-1.302H67.312z M74.863,46.56v-3.303
			c0-1.313-0.392-1.936-1.828-1.936c-1.154,0-1.904,0.376-1.991,1.57h1.153c0.032-0.559,0.142-1.119,0.838-1.119
			c0.74,0,0.729,0.968,0.729,1.485v0.451c-1.099,0.054-2.894,0.248-2.894,1.689c0,0.775,0.675,1.28,1.415,1.28
			c0.609,0,1.153-0.312,1.458-0.828h0.022v0.71H74.863z M73.112,45.893C72.992,45.958,72.839,46,72.698,46
			c-0.424,0-0.631-0.387-0.631-0.764c0-0.861,1.022-1.033,1.697-1.076v0.603C73.764,45.236,73.547,45.667,73.112,45.893z
			 M76.779,46.56h1.099v-7.424h-1.099V46.56z M83.178,39.135v7.424h1.686c2.622,0,3.405-1.302,3.405-3.787
			c0-2.453-0.87-3.637-3.405-3.637H83.178z M87.073,42.772c0,1.668-0.174,3.077-2.209,3.077h-0.489v-6.003h0.489
			c0.381,0,0.783,0.033,1.132,0.183C86.997,40.47,87.073,41.847,87.073,42.772z M91.677,41.32c-1.589,0-2.209,0.989-2.209,2.452
			c0,1.668,0.794,2.905,2.589,2.905c0.566,0,0.99-0.075,1.513-0.29v-0.495c-0.316,0.14-0.653,0.215-0.99,0.215
			c-1.436,0-2.013-1.474-2.013-2.69h3.101C93.668,42.105,93.08,41.32,91.677,41.32z M90.6,42.923
			c0.043-0.591,0.37-1.151,1.033-1.151c0.686,0,0.958,0.549,0.958,1.151H90.6z M96.901,45.096l-1.338-3.658h-1.164l1.969,5.121
			h0.958l1.828-5.121h-1.012l-1.218,3.658H96.901z M102.102,41.32c-1.589,0-2.209,0.989-2.209,2.452c0,1.668,0.794,2.905,2.59,2.905
			c0.566,0,0.99-0.075,1.512-0.29v-0.495c-0.315,0.14-0.653,0.215-0.99,0.215c-1.436,0-2.013-1.474-2.013-2.69h3.101
			C104.093,42.105,103.506,41.32,102.102,41.32z M101.025,42.923c0.043-0.591,0.369-1.151,1.033-1.151
			c0.686,0,0.958,0.549,0.958,1.151H101.025z M106.739,46.56v-7.424h-1.099v7.424H106.739z M110.602,41.32
			c-1.687,0-2.285,1.162-2.285,2.679c0,1.517,0.598,2.679,2.285,2.679c1.687,0,2.296-1.151,2.296-2.679
			C112.897,42.471,112.288,41.32,110.602,41.32z M110.602,46.226c-1.034,0-1.088-1.496-1.088-2.227c0-0.732,0.054-2.227,1.088-2.227
			c1.044,0,1.099,1.495,1.099,2.227C111.7,44.73,111.646,46.226,110.602,46.226z M114.411,41.438v7.424h1.099v-3.013h0.022
			c0.283,0.549,0.696,0.828,1.338,0.828c1.545,0,1.959-1.398,1.959-2.679c0-1.313-0.36-2.679-1.959-2.679
			c-0.652,0-1.088,0.387-1.338,0.957h-0.022v-0.839H114.411z M116.587,42.009c0.947,0,1.045,1.312,1.045,1.99
			c0,0.667-0.109,2.055-1.045,2.055c-1.012,0-1.034-1.345-1.034-2.055C115.553,43.31,115.629,42.009,116.587,42.009z M127.196,46.56
			v-3.475c0-0.892-0.217-1.764-1.306-1.764c-0.86,0-1.251,0.58-1.567,1.269h-0.021c-0.044-0.721-0.522-1.269-1.284-1.269
			c-0.784,0-1.35,0.634-1.567,1.334h-0.021v-1.216h-1.099v5.121h1.099v-2.12c0-0.699,0.163-2.313,1.131-2.313
			c0.664,0,0.653,0.754,0.653,1.227v3.206h1.099v-2.13c0-0.689,0.206-2.303,1.153-2.303c0.609,0,0.631,0.689,0.631,1.13v3.303
			H127.196z M128.7,43.773c0,1.668,0.794,2.905,2.589,2.905c0.566,0,0.99-0.075,1.512-0.29v-0.495
			c-0.316,0.14-0.653,0.215-0.99,0.215c-1.436,0-2.013-1.474-2.013-2.69h3.101c0-1.313-0.588-2.098-1.991-2.098
			C129.32,41.32,128.7,42.31,128.7,43.773z M130.865,41.772c0.686,0,0.958,0.549,0.958,1.151h-1.991
			C129.875,42.331,130.201,41.772,130.865,41.772z M135.511,42.654h-0.022v-1.216h-1.099v5.121h1.099v-2.12
			c0-0.796,0.37-2.313,1.393-2.313c0.631,0,0.653,0.775,0.653,1.227v3.206h1.099v-3.744c0-0.797-0.436-1.495-1.306-1.495
			C136.437,41.32,135.86,41.901,135.511,42.654z M143.357,41.998v-0.559h-1.414v-1.861l-1.099,0.656v1.205h-0.827v0.559h0.827v3.378
			c0,1.055,0.686,1.302,1.632,1.302c0.25,0,0.511-0.01,0.761-0.075v-0.624c-0.163,0.064-0.337,0.086-0.512,0.086
			c-0.772,0-0.783-0.495-0.783-1.119v-2.948H143.357z M151.792,39.846v-0.71h-3.83v7.424h1.197v-3.508h2.492v-0.71h-2.492v-2.496
			H151.792z M157.266,46.56v-5.121h-1.099v2.12c0,0.796-0.37,2.313-1.393,2.313c-0.631,0-0.653-0.775-0.653-1.227v-3.206h-1.099
			v3.744c0,0.796,0.435,1.495,1.305,1.495c0.892,0,1.458-0.58,1.806-1.334h0.022v1.216H157.266z M163.393,46.56v-3.744
			c0-0.797-0.436-1.495-1.306-1.495c-0.892,0-1.469,0.58-1.817,1.334h-0.021v-1.216h-1.099v5.121h1.099v-2.12
			c0-0.796,0.37-2.313,1.393-2.313c0.631,0,0.653,0.775,0.653,1.227v3.206H163.393z M169.323,46.56v-7.424h-1.099v3.013h-0.022
			c-0.294-0.549-0.707-0.828-1.349-0.828c-1.534,0-1.948,1.409-1.948,2.679c0,1.312,0.359,2.679,1.948,2.679
			c0.653,0,1.099-0.387,1.349-0.957h0.022v0.839H169.323z M167.147,45.99c-0.946,0-1.044-1.313-1.044-1.991
			c0-0.668,0.109-2.055,1.044-2.055c1.012,0,1.034,1.345,1.034,2.055C168.181,44.688,168.104,45.99,167.147,45.99z M43.737,60.74
			c0-0.373-0.296-0.666-0.673-0.666c-0.39,0-0.673,0.28-0.673,0.666c0,0.386,0.283,0.666,0.673,0.666
			C43.442,61.406,43.737,61.113,43.737,60.74z M45.577,60.74c0-0.38-0.289-0.666-0.673-0.666c-0.384,0-0.673,0.286-0.673,0.666
			c0,0.38,0.289,0.666,0.673,0.666C45.288,61.406,45.577,61.12,45.577,60.74z M50.296,69.247c-0.384,0-0.673,0.28-0.673,0.653
			c0,0.38,0.289,0.666,0.673,0.666c0.383,0,0.674-0.286,0.674-0.666C50.969,69.527,50.679,69.247,50.296,69.247z M48.456,69.247
			c-0.39,0-0.674,0.275-0.674,0.653c0,0.386,0.283,0.666,0.674,0.666c0.378,0,0.674-0.293,0.674-0.666
			C49.13,69.534,48.834,69.247,48.456,69.247z M49.468,62.781l0.08,0.026c0.56,0.176,0.56,0.263,0.56,0.548v3.07
			c0,0.779-0.315,1.18-0.937,1.192H46.95c-0.533-0.044-0.644-0.562-0.644-0.989v-3.272c0-0.25,0.01-0.581,0.089-0.917l0.006-0.026
			h-0.675l-0.006,0.006c-0.065,0.065-0.074,0.113-0.08,0.151c-0.003,0.017-0.006,0.03-0.013,0.046
			c-0.074,0.217-0.109,0.28-0.121,0.297c-0.028-0.018-0.098-0.064-0.205-0.131l-0.006-0.004c-0.293-0.189-0.783-0.505-1.514-0.505
			c-1.652,0-2.641,1.476-2.641,2.902c0,1.628,1.064,2.953,2.372,2.953c0.979,0,1.587-0.639,1.834-1.227
			c0.047,1.109,0.815,1.215,1.602,1.227h2.441c1.156,0,1.874-0.637,1.874-1.663v-4.018l-1.712,0.321L49.468,62.781z M45.037,66.533
			c-0.204,0.671-0.751,1.122-1.359,1.122c-0.495,0-1.332-0.507-1.332-2.405c0-1.84,0.773-2.493,1.435-2.493
			c0.568,0,0.95,0.236,1.169,0.722c0.201,0.45,0.227,1.055,0.227,1.531C45.176,65.668,45.153,66.152,45.037,66.533z M55.419,62.462
			h-0.026c-0.421,0-0.806,0.205-1.179,0.626c-0.563,0.635-0.786,0.689-1.084,0.701l-0.026,0.001l0.247,1.057l0.028-0.04
			c0.691-0.986,1.396-1.899,1.86-1.899c0.666,0,0.796,1.165,0.796,3.176v1.533h-3.742l0.425,0.503l0.007,0.007h4.607v-0.35
			C57.332,66.188,57.146,62.491,55.419,62.462z M84.475,60.343l0.08,0.026c0.547,0.172,0.547,0.249,0.547,0.536v5.521
			c0,0.791-0.332,1.192-0.987,1.192h-0.302v0.013h-0.145c-0.706,0-1.231-0.742-1.383-1.47v-3.702l-1.768,0.336l0.079,0.025
			c0.533,0.172,0.533,0.249,0.533,0.536v3.121c0,0.791-0.332,1.191-0.987,1.191c-0.841,0-1.358-1.15-1.358-1.974v-2.78l-1.805,0.335
			l0.077,0.026c0.56,0.19,0.56,0.234,0.56,0.486v2.716c0,0.791-0.336,1.191-1,1.191c-0.737,0-1.237-0.888-1.332-1.722v-2.578
			l-1.713,0.308l-0.082,0.015l0.08,0.026c0.559,0.184,0.559,0.226,0.559,0.498v2.21c0,0.791-0.328,1.192-0.974,1.192h-3.36
			c-0.389,0-0.564-0.07-0.715-0.19c0.532-0.286,1.133-0.633,1.587-1.054c0.529-0.49,0.785-1.001,0.785-1.566
			c0-1.371-1.072-2.257-2.73-2.257c-0.838,0-1.845,0.328-2.911,0.95c-0.06,0.035-0.098,0.063-0.128,0.086
			c-0.014,0.01-0.026,0.02-0.039,0.028l-0.022,0.015l0.018,0.018c0.03,0.03,0.126,0.161,0.211,0.276l0.102,0.137
			c0.216,0.28,0.619,0.8,0.82,1.174c0.675,1.346,0.916,1.725,1.276,2.132c-0.33,0.184-1.068,0.25-1.206,0.25h-3.489
			c0.058-0.512,0.087-1.167,0.087-2v-3.116h-0.993c-1.083,0-2.014,0.342-2.695,0.988c-0.691,0.658-1.057,1.573-1.057,2.647
			c0,1.282,1.168,1.991,1.976,1.991h1.442c-0.46,1.518-1.544,1.949-2.544,2.169l-0.474,0.079l0.17,0.013
			c0.482,0.039,0.874,0.063,1.049,0.063c0.668,0,1.207-0.133,1.648-0.408c0.6-0.372,1.027-1.017,1.269-1.917h3.918
			c0.684,0,1.011-0.139,1.359-0.322c0.004,0.003,0.008,0.005,0.013,0.006c0.182,0.12,0.489,0.317,1.452,0.317h3.437
			c0.819,0,1.431-0.298,1.729-0.841c0.461,0.606,0.977,0.853,1.772,0.853c0.794,0,1.571-0.46,1.768-1.036
			c0.304,0.631,0.977,1.036,1.733,1.036c0.876,0,1.536-0.392,1.778-1.052c0.311,0.612,1.011,1.052,1.684,1.052h0.175v-0.013h0.336
			c1.164,0,1.887-0.637,1.887-1.663v-6.456l-1.713,0.321L84.475,60.343z M62.271,67.247c0,0.148-0.01,0.245-0.022,0.356
			l-0.002,0.014H60.95c-0.689,0-1.102-0.792-1.102-1.558c0-1.87,1.19-3.125,2.303-3.125h0.12V67.247z M67.69,65.342
			c-0.301-0.656-0.622-1.178-1.008-1.639c0.694-0.379,1.402-0.579,2.049-0.579c0.883,0,1.409,0.611,1.409,1.634
			c0,1.199-0.614,1.674-1.482,2.209C68.321,66.585,67.926,65.808,67.69,65.342z M87.313,60.343l0.078,0.026
			c0.535,0.176,0.535,0.26,0.535,0.536v7.223h1.167v-8.12l-1.7,0.321L87.313,60.343z M95.136,60.74c0-0.373-0.296-0.666-0.673-0.666
			c-0.39,0-0.674,0.28-0.674,0.666c0,0.386,0.283,0.666,0.674,0.666C94.84,61.406,95.136,61.113,95.136,60.74z M96.976,60.74
			c0-0.38-0.289-0.666-0.673-0.666c-0.384,0-0.673,0.286-0.673,0.666c0,0.38,0.289,0.666,0.673,0.666
			C96.687,61.406,96.976,61.12,96.976,60.74z M99.867,69.247c-0.39,0-0.673,0.275-0.673,0.653c0,0.386,0.283,0.666,0.673,0.666
			c0.377,0,0.673-0.293,0.673-0.666C100.54,69.534,100.244,69.247,99.867,69.247z M101.707,69.247c-0.384,0-0.674,0.28-0.674,0.653
			c0,0.38,0.29,0.666,0.674,0.666c0.383,0,0.674-0.286,0.674-0.666C102.38,69.527,102.09,69.247,101.707,69.247z M106.89,62.445
			l-1.712,0.321l-0.083,0.015l0.08,0.026c0.56,0.176,0.56,0.262,0.56,0.548v3.07c0,0.779-0.315,1.18-0.937,1.192h-1.15
			c-0.873,0-1.409-1.121-1.409-1.924v-3.248l-1.712,0.321l-0.079,0.014l0.076,0.026c0.513,0.178,0.547,0.227,0.547,0.485v3.172
			c0,0.776-0.306,1.154-0.935,1.154h-1.788c-0.532-0.044-0.644-0.562-0.644-0.989v-3.272c0-0.25,0.01-0.58,0.088-0.918l0.006-0.026
			h-0.674l-0.006,0.006c-0.066,0.066-0.074,0.113-0.081,0.151c-0.003,0.017-0.006,0.03-0.013,0.046
			c-0.066,0.194-0.105,0.274-0.122,0.297c-0.027-0.018-0.097-0.064-0.204-0.131l-0.008-0.005c-0.293-0.189-0.784-0.504-1.512-0.504
			c-1.653,0-2.64,1.476-2.64,2.902c0,1.628,1.064,2.953,2.372,2.953c0.978,0,1.586-0.639,1.833-1.227
			c0.047,1.109,0.816,1.215,1.603,1.227h2.018c0.677,0,1.551-0.168,1.895-0.962c0.426,0.62,0.991,0.962,1.593,0.962h1.162
			c1.156,0,1.874-0.637,1.874-1.663V62.445z M96.435,66.533c-0.205,0.671-0.751,1.122-1.359,1.122c-0.495,0-1.332-0.507-1.332-2.405
			c0-1.84,0.773-2.493,1.435-2.493c0.568,0,0.95,0.236,1.168,0.722c0.201,0.45,0.227,1.055,0.227,1.531
			C96.574,65.666,96.551,66.149,96.435,66.533z M105.348,69.222c-0.384,0-0.686,0.298-0.686,0.678c0,0.367,0.308,0.666,0.686,0.666
			c0.378,0,0.685-0.299,0.685-0.666C106.034,69.52,105.733,69.222,105.348,69.222z M121.103,60.343l0.08,0.026
			c0.547,0.172,0.547,0.249,0.547,0.536v5.521c0,0.791-0.332,1.192-0.987,1.192h-3.348c-0.389,0-0.563-0.07-0.715-0.19
			c1.235-0.662,2.372-1.439,2.372-2.62c0-1.371-1.071-2.257-2.73-2.257c-0.837,0-1.844,0.328-2.91,0.95
			c-0.062,0.036-0.099,0.064-0.129,0.087c-0.013,0.01-0.026,0.019-0.038,0.027l-0.022,0.015l0.018,0.018
			c0.032,0.032,0.134,0.17,0.223,0.293l0.103,0.135c0.228,0.296,0.61,0.792,0.806,1.158c0.673,1.344,0.916,1.723,1.277,2.132
			c-0.329,0.184-1.068,0.25-1.206,0.25h-3.692c0.121-0.694,0.137-1.433,0.137-2v-3.172l-1.808,0.336l0.08,0.026
			c0.559,0.176,0.559,0.262,0.559,0.548v3.208c-0.08,1.864-0.586,3.141-2.859,3.746l-0.119,0.032l0.123,0.01
			c0.417,0.034,0.727,0.051,0.922,0.051c1.56,0,2.497-0.744,2.865-2.274h4.097c0.683,0,1.01-0.139,1.36-0.322
			c0.004,0.003,0.008,0.005,0.013,0.006c0.181,0.12,0.487,0.317,1.451,0.317h3.437c1.164,0,1.887-0.637,1.887-1.663v-6.456
			l-1.713,0.321L121.103,60.343z M115.294,65.342c-0.3-0.655-0.621-1.177-1.009-1.639c0.695-0.379,1.402-0.579,2.05-0.579
			c0.883,0,1.409,0.611,1.409,1.634c0,1.2-0.614,1.675-1.483,2.209C115.949,66.613,115.599,65.944,115.294,65.342z M123.942,60.343
			l0.078,0.026c0.535,0.176,0.535,0.26,0.535,0.536v7.223h1.167v-8.12l-1.699,0.321L123.942,60.343z M131.765,60.74
			c0-0.373-0.296-0.666-0.673-0.666c-0.389,0-0.673,0.28-0.673,0.666c0,0.386,0.283,0.666,0.673,0.666
			C131.469,61.406,131.765,61.113,131.765,60.74z M133.604,60.74c0-0.38-0.289-0.666-0.673-0.666c-0.384,0-0.673,0.286-0.673,0.666
			c0,0.38,0.289,0.666,0.673,0.666C133.315,61.406,133.604,61.12,133.604,60.74z M164.929,60.356
			c0.573,0.176,0.573,0.259,0.573,0.536v5.533c0,0.338-0.063,0.716-0.297,0.955c-0.008,0.008-0.019,0.014-0.027,0.022
			c-0.088,0.082-0.197,0.145-0.335,0.181c-0.014,0.004-0.03,0.006-0.045,0.009c-0.071,0.015-0.147,0.026-0.232,0.026h-0.983
			c-0.597,0-1.02-0.57-1.218-1.105c0.025-0.137,0.039-0.289,0.039-0.453c0-0.62-0.229-1.293-0.613-1.801
			c-0.318-0.421-0.887-0.924-1.785-0.924c-1.911,0-2.223,1.196-2.525,2.353c-0.161,0.614-0.363,1.378-0.746,1.745
			c-0.136,0.112-0.329,0.153-0.445,0.178l-0.026,0.006h-0.831c-0.598,0-1.021-0.57-1.218-1.105c0.025-0.137,0.039-0.289,0.039-0.453
			c0-0.62-0.229-1.293-0.614-1.801c-0.319-0.421-0.887-0.924-1.785-0.924c-1.911,0-2.222,1.196-2.525,2.353
			c-0.161,0.614-0.362,1.378-0.746,1.745c-0.136,0.112-0.33,0.154-0.446,0.178l-0.026,0.006h-0.779c-0.869,0-1.423-1.14-1.423-1.924
			v-5.711l-1.699,0.321l-0.078,0.015l0.075,0.026c0.514,0.178,0.547,0.227,0.547,0.486v5.635c0,0.765-0.315,1.154-0.937,1.154h-2.7
			v-2.152c0-1.225-1.154-2.367-2.592-2.586c1.246-0.385,3.013-1.32,3.077-1.986l0.001-0.008l-0.86-1.156l-0.034-0.046l-0.005,0.057
			c-0.099,1.31-2.524,3.025-3.364,3.025h-0.318L136.7,63.25h1.215c0.641,0,1.166,0.268,1.519,0.777
			c0.275,0.398,0.44,0.949,0.44,1.476v2.114h-4.896c-0.532-0.044-0.644-0.562-0.644-0.989v-3.272c0-0.25,0.01-0.58,0.088-0.918
			l0.006-0.026h-0.674l-0.006,0.006c-0.066,0.066-0.074,0.113-0.081,0.151c-0.003,0.017-0.006,0.03-0.013,0.046
			c-0.066,0.194-0.105,0.274-0.122,0.297c-0.027-0.018-0.097-0.064-0.204-0.131l-0.007-0.005c-0.293-0.189-0.784-0.504-1.512-0.504
			c-1.653,0-2.64,1.476-2.64,2.902c0,1.628,1.064,2.953,2.372,2.953c0.978,0,1.586-0.639,1.833-1.227
			c0.047,1.109,0.816,1.215,1.603,1.227h9.071c0.573,0,1.021-0.13,1.36-0.356c0.011-0.007,0.02-0.015,0.031-0.022
			c0.14-0.099,0.258-0.216,0.353-0.354c0.007-0.01,0.013-0.02,0.02-0.03c0.043-0.067,0.099-0.124,0.132-0.199
			c0.426,0.62,0.995,0.962,1.606,0.962h0.549c0.59,0,0.993-0.155,1.341-0.519c0.414,0.518,0.955,1.063,2.083,1.063
			c0.136,0,0.257-0.03,0.386-0.046c0.032-0.003,0.065-0.007,0.097-0.011c0.222-0.033,0.429-0.089,0.625-0.165
			c0.044-0.017,0.089-0.033,0.131-0.052c0.178-0.081,0.337-0.182,0.487-0.299c0.033-0.025,0.068-0.05,0.098-0.077
			c0.136-0.118,0.254-0.253,0.36-0.402c0.027-0.038,0.056-0.076,0.081-0.115c0.044-0.071,0.103-0.127,0.141-0.203
			c0.469,0.588,0.981,0.828,1.759,0.828h0.563c0.591,0,0.993-0.155,1.34-0.519c0.417,0.517,0.959,1.062,2.085,1.062
			c0.136,0,0.257-0.03,0.386-0.046c0.032-0.003,0.064-0.007,0.095-0.011c0.224-0.033,0.433-0.089,0.63-0.167
			c0.042-0.016,0.085-0.031,0.124-0.049c0.181-0.082,0.344-0.186,0.496-0.305c0.03-0.023,0.061-0.046,0.09-0.07
			c0.138-0.121,0.258-0.258,0.366-0.41c0.025-0.035,0.051-0.07,0.074-0.106c0.045-0.072,0.105-0.13,0.143-0.206
			c0.468,0.588,0.981,0.828,1.759,0.828h0.933c1.164,0,1.887-0.637,1.887-1.663v-6.47l-1.81,0.337L164.929,60.356z M133.064,66.533
			c-0.205,0.671-0.751,1.122-1.359,1.122c-0.495,0-1.332-0.507-1.332-2.405c0-1.84,0.773-2.493,1.435-2.493
			c0.568,0,0.95,0.236,1.169,0.722c0.201,0.45,0.227,1.055,0.227,1.531C133.203,65.666,133.18,66.149,133.064,66.533z
			 M151.558,68.185c-0.826,0-1.426-0.729-1.68-1.037c-0.002-0.005-0.024-0.047-0.055-0.073c0.22-0.417,0.332-0.835,0.44-1.239
			l0.026-0.098l0.027-0.077c0.239-0.924,0.486-1.879,1.307-1.879h0.05c0.939,0.037,1.358,1.203,1.358,2.341
			C153.031,67.241,152.357,68.185,151.558,68.185z M159.711,68.185c-0.825,0-1.424-0.726-1.682-1.038
			c-0.01-0.02-0.029-0.052-0.054-0.072c0.221-0.422,0.334-0.844,0.442-1.253l0.023-0.084l0.026-0.077
			c0.239-0.924,0.486-1.879,1.308-1.879h0.05c0.939,0.037,1.359,1.203,1.359,2.341C161.183,67.241,160.509,68.185,159.711,68.185z
			 M167.7,60.343l0.078,0.026c0.535,0.176,0.535,0.26,0.535,0.536v7.223h1.168v-8.12l-1.7,0.321L167.7,60.343z M12.791,20.599
			c0.509,0,0.93-0.417,0.93-0.902c0-0.486-0.421-0.885-0.93-0.885c-0.492,0-0.913,0.399-0.913,0.885
			C11.878,20.182,12.299,20.599,12.791,20.599z M15.16,20.599c0.492,0,0.913-0.417,0.913-0.902c0-0.486-0.421-0.885-0.913-0.885
			c-0.491,0-0.895,0.399-0.895,0.885C14.265,20.182,14.669,20.599,15.16,20.599z M22.759,32.401c0-0.486-0.421-0.885-0.913-0.885
			c-0.509,0-0.895,0.399-0.895,0.885c0,0.486,0.386,0.903,0.895,0.903C22.338,33.304,22.759,32.887,22.759,32.401z M23.303,32.401
			c0,0.486,0.404,0.903,0.895,0.903c0.492,0,0.913-0.417,0.913-0.903c0-0.486-0.421-0.885-0.913-0.885
			C23.707,31.516,23.303,31.915,23.303,32.401z M25.462,29.971h10.039l-1.246-1.458h-4.51v-3.245c0-0.99,0.632-1.736,1.685-1.736
			c0.527,0,1.001,0.243,1.422,0.746l1.246-1.111c-0.702-0.677-1.527-1.024-2.475-1.024c-1.106,0-1.983,0.33-2.615,0.99
			c-0.614,0.642-0.93,1.458-0.93,2.413v2.967h-1.948v0.035h-0.562c-1.158,0-1.738-0.572-1.738-1.718v-4.687l-1.65,0.486v4.148
			c0,1.18-0.579,1.77-1.755,1.77h-1.79c-1.141,0-1.72-0.59-1.72-1.77v-4.634h-3.563c-2.229,0-3.352,1.285-3.352,3.853
			c0,2.655,1.123,3.974,3.352,3.974c1.317,0,2.176-0.399,2.58-1.215c0.369,0.816,1.246,1.215,2.615,1.215h1.983
			c1.07,0,1.896-0.312,2.492-0.92C23.619,29.659,24.427,29.971,25.462,29.971z M15.248,25.997c0,0.85-0.123,1.475-0.351,1.857
			c-0.264,0.469-0.755,0.694-1.439,0.694c-0.685,0-1.176-0.225-1.439-0.694c-0.228-0.381-0.351-1.007-0.351-1.857
			c0-0.85,0.123-1.476,0.351-1.84c0.263-0.452,0.755-0.677,1.439-0.677h1.79V25.997z M38.678,18.777l-1.667,0.521v10.674h1.667
			V18.777z M41.556,33.304c1.211,0,2.177-0.347,2.878-1.059c0.719-0.712,1.071-1.631,1.071-2.794v-7.307l-1.667,0.486v6.874
			c0,1.458-0.86,2.36-2.282,2.36c-1,0-1.878-0.226-2.667-0.659l0.79,1.631C40.187,33.148,40.801,33.304,41.556,33.304z
			 M51.384,20.599c0.492,0,0.895-0.417,0.895-0.902c0-0.504-0.403-0.92-0.895-0.92c-0.492,0-0.913,0.416-0.913,0.92
			C50.472,20.182,50.893,20.599,51.384,20.599z M48.383,33.304c2.264,0,3.703-1.32,3.931-3.333h3.194c1,0,1.808-0.296,2.404-0.868
			c0.597-0.59,0.895-1.318,0.895-2.204v-8.088l-1.667,0.486v7.446c0,1.18-0.58,1.77-1.721,1.77h-3.089v-6.37l-1.667,0.486v6.874
			c0,1.458-0.86,2.36-2.282,2.36c-1,0-1.878-0.226-2.668-0.659l0.79,1.631C47.014,33.148,47.628,33.304,48.383,33.304z
			 M61.985,18.777l-1.667,0.521v10.674h1.667V18.777z M69.128,20.599c0.509,0,0.93-0.417,0.93-0.902c0-0.486-0.421-0.885-0.93-0.885
			c-0.491,0-0.913,0.399-0.913,0.885C68.215,20.182,68.636,20.599,69.128,20.599z M71.497,20.599c0.491,0,0.913-0.417,0.913-0.902
			c0-0.486-0.421-0.885-0.913-0.885c-0.491,0-0.895,0.399-0.895,0.885C70.602,20.182,71.006,20.599,71.497,20.599z M79.096,32.401
			c0-0.486-0.421-0.885-0.913-0.885c-0.509,0-0.895,0.399-0.895,0.885c0,0.486,0.386,0.903,0.895,0.903
			C78.675,33.304,79.096,32.887,79.096,32.401z M79.64,32.401c0,0.486,0.404,0.903,0.895,0.903c0.492,0,0.913-0.417,0.913-0.903
			c0-0.486-0.421-0.885-0.913-0.885C80.044,31.516,79.64,31.915,79.64,32.401z M97.788,20.599c0.491,0,0.913-0.417,0.913-0.902
			c0-0.486-0.421-0.885-0.913-0.885c-0.492,0-0.913,0.399-0.913,0.885C96.875,20.182,97.296,20.599,97.788,20.599z M103.421,20.599
			c0.491,0,0.913-0.417,0.913-0.902c0-0.486-0.422-0.885-0.913-0.885c-0.509,0-0.895,0.399-0.895,0.885
			C102.526,20.182,102.912,20.599,103.421,20.599z M105.773,20.599c0.492,0,0.913-0.417,0.913-0.902
			c0-0.486-0.421-0.885-0.913-0.885c-0.473,0-0.895,0.399-0.895,0.885C104.878,20.182,105.299,20.599,105.773,20.599z
			 M69.689,29.971c1.317,0,2.176-0.399,2.58-1.215c0.368,0.816,1.246,1.215,2.615,1.215h1.983c1.07,0,1.895-0.312,2.492-0.92
			c0.597,0.608,1.404,0.92,2.44,0.92h1.106c0.948,0,1.667-0.296,2.176-0.868c0.474,1.319,1.755,2.083,3.352,2.083
			c1.685,0,2.984-0.851,3.405-2.309c0.535,0.695,1.296,1.055,2.263,1.087v0.006h1.264c1.071,0,1.895-0.312,2.492-0.92
			c0.597,0.608,1.404,0.92,2.44,0.92h1.896c1.07,0,1.895-0.312,2.492-0.92c0.597,0.608,1.404,0.92,2.44,0.92h1.755
			c1.001,0,1.808-0.296,2.405-0.868c0.597-0.59,0.895-1.318,0.895-2.204v-8.088l-1.667,0.486v7.446c0,1.18-0.579,1.77-1.72,1.77
			h-1.036v0.035h-0.526c-1.158,0-1.737-0.572-1.737-1.718v-4.687l-1.65,0.486v4.148c0,1.18-0.579,1.77-1.755,1.77h-1.685
			c-1.158,0-1.737-0.572-1.737-1.718v-4.687l-1.65,0.486v4.148c0,1.18-0.579,1.77-1.755,1.77h-0.789v-0.035l-0.351,0.035
			c-1.246,0-1.966-0.572-2.159-1.701c-0.158-1.024-0.473-1.787-0.983-2.256c-0.562-0.521-1.404-0.781-2.545-0.781
			c-2.071,0-3.247,1.006-3.545,3.037c-0.14,1.111-0.842,1.666-2.088,1.666h-0.457v0.035h-0.438c-1.159,0-1.738-0.572-1.738-1.718
			v-4.687l-1.65,0.486v4.148c0,1.18-0.579,1.77-1.755,1.77h-1.79c-1.141,0-1.72-0.59-1.72-1.77v-4.634h-3.563
			c-2.229,0-3.352,1.285-3.352,3.853C66.337,28.652,67.461,29.971,69.689,29.971z M88.433,25.181c1.229,0,1.843,0.764,1.843,2.309
			c0,1.544-0.614,2.308-1.843,2.308c-1.246,0-1.86-0.764-1.86-2.308C86.573,25.944,87.187,25.181,88.433,25.181z M68.355,24.157
			c0.263-0.452,0.755-0.677,1.439-0.677h1.79v2.517c0,0.85-0.123,1.475-0.351,1.857c-0.263,0.469-0.755,0.694-1.439,0.694
			c-0.685,0-1.176-0.225-1.439-0.694c-0.228-0.381-0.351-1.007-0.351-1.857C68.005,25.146,68.127,24.521,68.355,24.157z
			 M115.356,18.777l-1.667,0.521v10.674h1.667V18.777z M127.29,20.599c0.491,0,0.912-0.417,0.912-0.902
			c0-0.486-0.421-0.885-0.912-0.885c-0.491,0-0.912,0.399-0.912,0.885C126.378,20.182,126.799,20.599,127.29,20.599z
			 M124.921,20.599c0.509,0,0.93-0.417,0.93-0.902c0-0.486-0.421-0.885-0.93-0.885c-0.491,0-0.912,0.399-0.912,0.885
			C124.008,20.182,124.429,20.599,124.921,20.599z M124.763,33.304c3.089,0,4.651-1.198,4.686-3.61c0-0.191,0.017-0.625,0.035-1.284
			c0.053-0.608,0.07-1.111,0.07-1.493c0-3.106-1.158-4.669-3.458-4.669c-1.211,0-2.106,0.417-2.685,1.25
			c-0.474,0.677-0.719,1.58-0.719,2.691c0,1.11,0.245,2.013,0.719,2.724c0.579,0.833,1.474,1.25,2.685,1.25
			c0.737,0,1.299-0.191,1.703-0.555v0.069c0.017,0.816-0.316,1.407-1,1.754c-0.492,0.243-1.158,0.347-2.018,0.33
			c-1.281,0-2.212-0.33-2.756-0.972c-0.544-0.642-0.825-1.787-0.825-3.419l-1.492,0.538c0.14,1.874,0.526,3.193,1.141,3.957
			C121.621,32.817,122.92,33.304,124.763,33.304z M126.096,28.687c-1.176,0-1.772-0.833-1.772-2.499c0-1.667,0.596-2.5,1.772-2.5
			c1.176,0,1.773,0.833,1.773,2.5C127.869,27.854,127.272,28.687,126.096,28.687z M134.486,30.213c0.614,0,1.159-0.138,1.667-0.416
			c-0.14,1.301-0.842,1.996-2.106,2.065c-0.86,0.052-1.79-0.138-2.791-0.607l0.737,1.597c0.492,0.295,1.176,0.451,2.054,0.451
			c1.246,0,2.193-0.4,2.843-1.18c0.615-0.695,0.913-1.632,0.93-2.83c0-0.173,0.018-0.538,0.053-1.093
			c0.018-0.503,0.018-0.937,0.018-1.267c0-1.336-0.193-2.36-0.58-3.072c-0.544-0.954-1.492-1.423-2.826-1.423
			c-1.211,0-2.124,0.417-2.703,1.233c-0.474,0.677-0.719,1.562-0.719,2.655c0,1.094,0.246,1.962,0.719,2.638
			C132.362,29.798,133.274,30.213,134.486,30.213z M134.486,23.862c1.176,0,1.755,0.816,1.755,2.465
			c0,1.631-0.579,2.448-1.755,2.448s-1.773-0.816-1.773-2.448C132.713,24.678,133.31,23.862,134.486,23.862z M152.001,20.599
			c0.492,0,0.913-0.417,0.913-0.902c0-0.486-0.421-0.885-0.913-0.885c-0.491,0-0.912,0.399-0.912,0.885
			C151.088,20.182,151.51,20.599,152.001,20.599z M152.071,29.051c0.597,0.608,1.404,0.92,2.44,0.92h14.708
			c0.07-1.666,0.105-2.396,0.105-2.204c0-1.493-0.263-2.673-0.807-3.541c-0.86-1.371-2.159-2.048-3.861-1.996
			c-1.948,0.052-3.475,0.903-4.581,2.569c-0.544,0.798-0.93,1.649-1.158,2.569v-3.714l-1.667,0.468v4.391h-2.071v0.035h-0.561
			c-1.158,0-1.737-0.572-1.737-1.718v-4.687l-1.65,0.486v4.148c0,1.18-0.579,1.77-1.755,1.77h-0.72v-0.035h-2.387v-3.384
			c0-0.903-0.316-1.614-0.965-2.152c-0.649-0.538-1.474-0.815-2.51-0.815c-0.79,0-1.58,0.347-2.369,1.024v1.875
			c0.579-1.007,1.369-1.511,2.369-1.511c1.211,0,1.825,0.573,1.825,1.701v3.297H140.4l-1,1.423h10.179
			C150.649,29.971,151.474,29.659,152.071,29.051z M161.285,25.511c1.035-1.18,2.158-1.771,3.405-1.771
			c1.018,0,1.79,0.417,2.334,1.25c0.439,0.711,0.649,1.597,0.649,2.673c0,0.295-0.018,0.573-0.053,0.85h-7.828
			C159.864,27.524,160.355,26.534,161.285,25.511z"/>
	</g>
</g>
</svg>
